<?xml version="1.0" standalone="no"?>
<!DOCTYPE svg PUBLIC "-//W3C//DTD SVG 20010904//EN"
 "http://www.w3.org/TR/2001/REC-SVG-20010904/DTD/svg10.dtd">
<svg version="1.0" xmlns="http://www.w3.org/2000/svg"
 width="1167.000000pt" height="1167.000000pt" viewBox="0 0 1167.000000 1167.000000"
 preserveAspectRatio="xMidYMid meet">
<metadata>
Created by potrace 1.14, written by Peter Selinger 2001-2017
</metadata>
<g transform="translate(0.000000,1167.000000) scale(0.100000,-0.100000)"
fill="#000000" stroke="none">
<path d="M1523 10706 l-28 -24 0 -481 0 -481 -50 -1 c-27 0 -77 -1 -110 -1
-127 1 -217 -48 -261 -142 -60 -129 -7 -275 122 -336 37 -17 64 -20 171 -20
l128 0 0 -412 0 -412 -125 -2 c-142 -1 -190 -16 -249 -75 -107 -106 -92 -288
31 -376 55 -40 101 -49 235 -48 65 1 104 -3 106 -9 2 -6 3 -191 3 -411 l-1
-400 -135 -5 c-154 -7 -193 -20 -252 -90 -106 -123 -65 -307 86 -387 23 -13
67 -19 166 -23 l135 -5 0 -409 0 -409 -130 -1 c-116 -2 -135 -5 -179 -26 -87
-44 -136 -125 -136 -225 0 -95 39 -162 125 -215 36 -23 53 -25 180 -30 l140
-5 0 -412 0 -413 -129 0 c-144 0 -180 -11 -245 -72 -131 -123 -73 -361 100
-412 26 -8 80 -14 120 -15 41 0 92 0 114 0 l40 -1 0 -410 0 -410 -116 0 c-77
0 -130 -5 -160 -15 -102 -35 -169 -128 -169 -233 0 -103 52 -185 145 -228 44
-21 65 -24 175 -24 l125 0 0 -632 c-1 -354 3 -645 8 -661 5 -15 17 -32 27 -37
12 -7 1101 -10 3077 -10 2688 0 3068 2 3138 15 460 87 805 441 879 899 10 68
12 774 11 3847 l-1 3764 -21 92 c-51 216 -147 387 -305 543 -159 157 -372 263
-603 299 -37 6 -1229 10 -3107 10 l-3047 1 -28 -24z m2002 -4716 l0 -4575
-937 0 -938 0 0 592 0 593 85 0 c47 0 85 -3 86 -7 0 -5 1 -233 2 -508 l2 -500
765 0 765 0 1 4408 1 4407 -767 0 -768 0 1 -335 c0 -184 -2 -338 -6 -341 -3
-3 -41 -6 -84 -7 l-78 -1 -3 427 -2 427 937 -2 938 -3 0 -4575z m4205 4564
c255 -54 457 -190 594 -399 83 -126 132 -258 150 -400 12 -97 7 -7478 -5
-7555 -61 -395 -377 -711 -771 -773 -66 -10 -489 -13 -2048 -12 l-1965 0 -3
4578 -2 4577 1992 -1 c1664 -1 2004 -3 2058 -15z m-5238 -868 c78 -37 128
-113 136 -204 11 -133 -98 -252 -234 -253 -62 -1 -79 7 -49 23 35 19 94 89
107 127 19 56 15 149 -10 197 -22 43 -93 114 -115 114 -8 0 -7 4 3 11 21 14
120 5 162 -15z m-211 -155 c31 -31 36 -64 18 -104 -24 -53 -25 -53 -546 -53
-470 1 -482 2 -509 22 -34 25 -46 65 -32 105 20 59 17 58 551 59 l489 0 29
-29z m-460 -338 c4 -159 0 -785 -5 -791 -4 -4 -43 -7 -87 -7 l-79 0 0 412 0
413 85 0 85 0 1 -27z m663 -827 c51 -21 97 -67 122 -121 71 -151 -33 -330
-198 -340 -27 -2 -58 -1 -68 2 -17 5 -14 10 21 35 53 38 96 107 104 168 13 94
-41 206 -118 247 l-32 17 25 6 c34 9 106 2 144 -14z m-240 -136 c67 -25 87
-94 42 -147 l-24 -28 -489 -3 c-445 -3 -491 -2 -520 14 -63 33 -63 127 0 158
28 13 95 16 499 16 275 0 477 -4 492 -10z m-427 -343 c2 -3 5 -188 6 -411 l2
-406 -87 0 -88 0 0 413 0 412 81 -2 c44 0 83 -3 86 -6z m668 -846 c160 -72
194 -275 66 -394 -27 -25 -65 -50 -87 -56 -47 -13 -134 -14 -134 -2 0 4 17 20
38 33 74 49 116 172 90 265 -13 49 -58 113 -97 138 -17 11 -31 23 -31 28 0 15
115 6 155 -12z m-203 -160 c38 -42 37 -83 -1 -122 -22 -21 -39 -29 -68 -30
-21 0 -241 -1 -489 -1 -322 0 -457 3 -472 11 -66 35 -56 151 15 167 15 3 31 6
35 7 5 1 220 2 480 1 l472 -1 28 -32z m-461 -338 c4 -126 0 -785 -5 -790 -3
-3 -41 -6 -83 -6 l-78 -1 -3 412 -2 412 85 0 85 0 1 -27z m675 -831 c90 -46
142 -144 131 -243 -6 -52 -40 -121 -73 -151 -52 -46 -142 -72 -204 -59 l-30 6
47 35 c66 49 98 115 97 200 0 45 -7 77 -22 106 -22 43 -93 114 -115 114 -8 0
-7 3 3 10 24 15 122 5 166 -18z m-237 -135 c40 -19 57 -58 46 -102 -19 -72 -9
-70 -558 -70 l-487 0 -24 25 c-42 42 -38 116 8 143 42 24 965 28 1015 4z
m-438 -339 c1 -18 1 -790 0 -805 -1 -9 -25 -13 -86 -13 l-85 0 0 415 0 415 85
0 c61 0 85 -4 86 -12z m674 -850 c53 -26 72 -44 101 -94 31 -53 41 -129 24
-188 -31 -110 -157 -192 -266 -172 l-35 7 38 26 c72 49 106 113 107 203 1 85
-31 151 -97 200 l-47 35 27 6 c44 8 105 -1 148 -23z m-228 -138 c50 -32 56
-98 14 -141 l-29 -29 -487 0 c-531 0 -533 0 -552 57 -19 54 12 118 61 125 11
2 235 3 496 3 390 -1 479 -3 497 -15z m-445 -732 c0 -216 -1 -399 -1 -405 -1
-9 -25 -13 -86 -13 l-85 0 0 410 0 409 78 3 c42 2 81 0 86 -4 5 -3 8 -183 8
-400z m649 -443 c89 -31 149 -110 156 -207 12 -143 -95 -258 -241 -259 -31 -1
-59 1 -62 3 -2 3 13 17 35 32 144 100 141 317 -4 412 -14 9 -25 20 -25 25 0
15 93 10 141 -6z m-253 -134 c23 -1 43 -10 63 -30 38 -39 39 -80 1 -122 l-28
-31 -491 0 c-346 0 -497 3 -512 11 -22 12 -49 58 -45 79 1 6 2 18 3 26 3 33
38 60 87 65 37 5 702 6 922 2z"/>
<path d="M3850 5991 l0 -4409 1913 2 c2146 2 1955 -5 2123 77 190 92 330 259
396 469 l23 75 0 3785 c0 3586 -1 3788 -18 3849 -74 269 -281 472 -552 541
-77 20 -111 20 -1982 20 l-1903 0 0 -4409z m3620 2247 l0 -833 -1463 2 c-804
1 -1468 2 -1474 2 -10 1 -13 174 -13 831 l0 830 1475 0 1475 0 0 -832z"/>
<path d="M4692 8238 l3 -663 1300 0 1300 0 3 663 2 662 -1305 0 -1305 0 2
-662z"/>
<path d="M9890 8798 c-142 -16 -278 -118 -344 -258 l-31 -65 -3 -3014 -2
-3015 30 -95 c38 -117 97 -299 229 -707 56 -171 101 -316 101 -323 0 -23 49
-61 77 -61 48 0 70 24 97 107 13 43 66 206 116 363 51 157 123 382 162 500
l71 215 0 2955 c0 1625 -2 2984 -6 3019 -14 138 -111 272 -241 336 -82 40
-162 54 -256 43z m186 -183 c90 -44 154 -138 157 -233 l2 -47 -285 0 -285 0 3
48 c11 198 227 321 408 232z m155 -450 c3 -5 5 -32 5 -60 l-2 -50 -269 -1
c-149 0 -277 2 -285 5 -11 4 -16 20 -16 56 1 28 4 52 7 55 14 10 554 5 560 -5z
m-31 -5787 c0 -7 -28 -99 -62 -205 l-62 -193 -126 0 -125 0 -62 194 c-35 107
-63 199 -63 205 0 8 77 11 250 11 191 0 250 -3 250 -12z m-183 -562 c3 -2 -11
-52 -30 -111 -19 -59 -37 -103 -40 -99 -17 30 -66 208 -58 213 10 7 122 4 128
-3z"/>
</g>
</svg>
